<svg xmlns="http://www.w3.org/2000/svg" viewBox="0 0 400 400" role="img" aria-label="Spotify logo">
  <circle cx="200" cy="200" r="200" fill="#1DB954"/>
  <path fill="#ffffff" d="M306.5 281c-4.6 7.6-14.6 9.9-22.1 5.3-59.8-36.7-135.2-45-223-24.5-8.7 2-17.4-3.4-19.4-12.1-2-8.7 3.4-17.4 12.1-19.4 95.8-22.4 178.6-12.8 245.9 29.2 7.6 4.7 10 14.7 5.5 21.5zM323 231.7c-5.7 9.2-17.8 12-26.9 6.4-68.5-42.4-172.9-54.7-253.9-29.9-10.6 3.2-21.7-2.8-24.9-13.4-3.2-10.6 2.8-21.7 13.4-24.9 90.9-27.2 205.6-13.1 282.1 33.9 9.2 5.7 12 17.8 6.4 27zm.7-56.6C246 123.2 142.5 114 74 134.5c-12.5 3.8-25.7-3.4-29.5-15.9-3.8-12.5 3.4-25.7 15.9-29.5 78.6-23.5 193.3-13 269 33.6 11 6.7 14.6 21 7.8 32-6.8 11-21 14.6-32 7.8z"/>
</svg>
