<!-- Paste your black SVG content here -->
<!-- This file should contain the black version of your logo -->
<!-- The SVG will be displayed in light mode -->
<svg xmlns="http://www.w3.org/2000/svg" version="1.0" width="600.000000pt" height="400.000000pt" viewBox="0 0 600.000000 400.000000" preserveAspectRatio="xMidYMid meet">
    <g transform="translate(0.000000,400.000000) scale(0.100000,-0.100000)" fill="#000000" stroke="none">
        <path d="M2545 3691 c-47 -12 -94 -38 -172 -98 -172 -130 -274 -347 -273 -583 l0 -75 25 60 c58 140 166 257 305 329 115 60 101 70 160 -116 28 -90 58 -183 66 -208 19 -62 78 -251 124 -395 21 -66 57 -181 80 -255 23 -74 46 -148 52 -163 15 -38 51 -61 83 -53 29 7 26 5 151 142 186 202 187 204 163 258 -11 24 -42 40 -99 50 -14 2 -65 14 -115 25 -49 12 -113 26 -142 32 -50 11 -52 13 -72 66 -12 30 -21 58 -21 63 0 13 76 39 134 46 105 13 236 -37 312 -118 213 -228 93 -593 -214 -649 -79 -15 -151 -3 -231 37 -81 40 -142 102 -179 182 -24 50 -27 69 -27 162 0 60 5 113 11 124 9 15 7 32 -6 75 -10 31 -55 175 -100 321 -45 146 -83 266 -85 268 -2 2 -16 -7 -31 -20 -171 -142 -276 -302 -340 -513 -25 -82 -27 -105 -27 -250 -1 -167 9 -224 63 -368 71 -190 244 -385 431 -486 292 -158 605 -161 900 -10 245 126 421 351 496 634 14 55 18 104 17 230 -1 184 -17 259 -82 399 -133 282 -347 458 -662 542 -133 36 -403 19 -524 -31 l-33 -14 -33 122 c-34 124 -71 248 -73 246 -1 -1 -15 -4 -32 -8z m23 -57 c2 -18 -1 -24 -9 -18 -8 4 -9 3 -5 -5 4 -6 11 -9 16 -6 11 7 23 -31 15 -45 -3 -5 -1 -10 4 -10 6 0 11 -9 11 -19 0 -11 5 -23 11 -27 6 -3 9 -15 6 -25 -3 -11 0 -19 6 -19 6 0 8 -3 4 -6 -3 -3 1 -23 8 -45 8 -21 11 -39 8 -39 -4 0 -2 -5 5 -12 15 -15 16 -31 0 -22 -7 4 -8 3 -4 -5 4 -6 12 -9 17 -6 5 4 15 3 22 -2 6 -4 15 -8 20 -8 10 0 9 -20 -2 -20 -5 0 -12 -3 -16 -7 -9 -9 17 -5 33 5 7 5 10 12 7 17 -5 8 46 33 61 29 5 -1 28 3 51 9 23 7 67 14 97 15 31 1 56 4 56 8 0 3 15 5 34 5 19 0 33 -3 31 -6 -2 -4 19 -6 47 -4 56 3 230 -37 256 -58 9 -7 13 -8 9 -2 -4 6 9 4 28 -4 19 -9 35 -20 35 -24 0 -4 9 -8 20 -8 24 0 117 -58 159 -100 37 -37 39 -45 9 -30 -21 10 -22 10 -5 -4 11 -8 25 -12 33 -9 9 3 14 -2 14 -13 0 -16 2 -17 10 -4 7 11 10 11 10 2 0 -7 5 -10 10 -7 6 4 9 3 8 -2 -4 -11 27 -54 35 -48 4 3 5 2 3 -1 -4 -5 4 -16 51 -66 17 -19 28 -39 85 -153 22 -44 41 -89 42 -101 0 -12 4 -20 9 -17 10 6 9 -5 -4 -29 -8 -15 -8 -23 1 -32 8 -8 10 -7 5 5 -4 10 -3 19 2 22 9 6 13 -11 16 -78 2 -22 6 -46 11 -53 11 -18 16 -201 5 -208 -5 -3 -7 -18 -4 -34 3 -18 -1 -34 -11 -44 -8 -9 -11 -16 -6 -16 11 0 6 -61 -6 -69 -4 -3 -7 -13 -7 -21 1 -20 -27 -80 -37 -80 -5 0 -6 -5 -2 -11 3 -6 0 -15 -7 -20 -12 -7 -12 -9 0 -9 9 0 6 -10 -11 -32 -29 -40 -52 -89 -49 -103 2 -5 -1 -7 -5 -3 -3 4 -19 -12 -35 -35 -41 -61 -84 -108 -100 -110 -8 -2 -20 -6 -26 -10 -7 -5 -17 -6 -21 -3 -5 3 -9 -1 -9 -9 0 -19 6 -19 29 2 10 9 18 12 18 7 0 -5 -10 -15 -22 -23 -19 -12 -23 -11 -34 3 -11 15 -12 14 -10 -8 0 -13 4 -22 9 -19 4 2 7 2 7 -1 0 -12 -147 -103 -163 -100 -8 1 -18 -4 -21 -12 -3 -8 -15 -14 -26 -14 -11 0 -20 -5 -20 -12 0 -6 -3 -8 -7 -5 -3 4 -11 3 -17 -2 -21 -17 -164 -51 -236 -55 -38 -3 -74 -7 -80 -11 -8 -5 -99 4 -195 20 -83 14 -128 29 -164 57 -13 10 -29 18 -35 18 -6 -1 0 -7 14 -15 14 -8 20 -14 15 -15 -6 0 -20 7 -31 15 -12 8 -24 12 -26 9 -3 -2 -11 2 -18 11 -7 8 -18 15 -26 15 -12 0 -40 38 -37 51 1 3 -5 6 -12 6 -11 0 -12 -4 -4 -14 7 -8 8 -13 1 -13 -14 0 -33 26 -24 34 4 4 2 6 -5 4 -6 -1 -19 6 -28 17 -9 11 -13 13 -9 5 4 -8 -5 -4 -19 9 -15 14 -27 21 -27 17 0 -5 -7 -3 -15 4 -9 7 -13 15 -11 17 6 6 -32 43 -44 43 -5 0 -7 7 -4 15 4 11 -1 15 -17 15 -19 0 -21 2 -9 10 13 9 7 14 -12 11 -15 -2 -87 124 -82 143 4 12 2 16 -5 12 -6 -4 -15 4 -21 21 -6 15 -22 49 -36 76 -14 26 -26 65 -27 86 -1 22 -5 37 -9 34 -5 -2 -8 0 -8 6 0 5 5 13 12 17 8 5 7 10 -4 18 -21 15 -33 56 -17 56 10 0 10 3 1 12 -15 15 -17 268 -3 268 5 0 9 15 8 32 -1 20 3 33 10 33 6 0 15 4 20 9 4 5 3 6 -4 2 -6 -3 -14 -2 -18 4 -3 5 -1 10 5 10 6 0 9 4 5 10 -3 5 1 25 9 45 9 20 15 39 14 43 -4 15 56 121 65 115 6 -3 7 -1 3 5 -9 15 34 84 50 78 7 -3 18 1 24 9 10 12 8 13 -9 10 -19 -3 -18 0 11 36 29 36 47 52 33 29 -3 -5 -4 -10 -1 -10 3 0 12 16 21 35 10 19 26 37 36 40 11 4 17 11 13 16 -3 5 -1 8 5 7 5 -2 16 5 23 14 15 20 36 11 43 -18 13 -59 38 -140 45 -149 5 -6 10 -24 12 -40 2 -17 6 -32 9 -35 6 -6 40 -100 41 -115 0 -5 -3 -19 -7 -30 -5 -14 -4 -16 3 -6 11 15 27 -2 17 -19 -3 -5 -1 -10 5 -10 6 0 8 -5 5 -10 -4 -6 -2 -16 3 -23 5 -7 10 -19 10 -27 1 -8 7 -34 14 -57 9 -33 10 -53 1 -85 -11 -39 -11 -162 0 -198 7 -25 18 -54 27 -71 5 -10 4 -21 -3 -28 -8 -8 -8 -14 2 -23 10 -11 11 -9 5 7 -5 15 0 13 23 -10 16 -16 29 -33 29 -36 -1 -3 12 -17 29 -31 25 -22 28 -28 16 -42 -7 -9 -10 -16 -6 -16 5 0 6 -3 2 -6 -3 -4 -13 0 -21 9 -8 8 -12 18 -8 22 4 4 0 5 -8 3 -10 -2 -15 4 -14 19 1 13 -3 20 -7 17 -5 -3 -6 -10 -3 -16 5 -7 2 -8 -5 -4 -7 5 -10 15 -7 23 3 8 2 12 -3 9 -7 -5 -52 55 -56 74 0 3 -6 14 -12 26 -7 11 -10 32 -7 45 4 17 3 20 -4 10 -8 -10 -11 -6 -17 18 -4 18 -4 35 -1 38 3 3 -3 18 -14 33 -11 15 -16 31 -12 35 4 5 1 5 -5 1 -7 -4 -13 -2 -13 3 0 6 -4 11 -10 11 -5 0 -9 -4 -7 -9 1 -5 -7 -17 -18 -26 -11 -9 -15 -14 -9 -11 7 4 12 -3 11 -17 -1 -62 14 -141 33 -164 15 -20 17 -29 9 -45 -6 -11 -8 -22 -5 -26 3 -3 6 0 6 6 0 7 3 12 8 12 10 0 42 -58 34 -63 -4 -2 -2 -3 4 -1 6 1 17 -3 23 -9 15 -15 14 -40 -1 -31 -7 4 -8 3 -4 -5 6 -9 11 -9 24 1 9 7 13 8 9 2 -3 -6 3 -17 15 -25 11 -8 34 -26 51 -41 17 -15 44 -32 61 -39 17 -7 42 -20 56 -29 14 -10 32 -18 40 -18 26 -3 75 -9 85 -12 29 -7 95 2 108 15 8 8 16 13 18 12 2 -1 -4 7 -15 17 -11 11 -31 19 -49 18 -17 0 -26 2 -20 6 7 4 -8 9 -32 10 -25 1 -64 11 -87 22 -23 11 -46 20 -50 20 -5 0 -18 9 -30 20 -12 10 -24 17 -28 15 -4 -2 -6 6 -5 18 2 29 30 33 52 8 9 -12 23 -21 29 -21 20 0 64 -27 57 -34 -4 -4 1 -4 12 0 15 6 17 4 12 -12 -7 -19 -7 -19 8 0 8 11 15 15 15 10 0 -10 106 -10 169 0 81 12 227 120 259 191 11 23 15 26 23 14 7 -10 8 -6 3 14 -4 17 -2 27 5 27 6 0 11 9 11 21 0 11 4 18 8 15 9 -5 9 1 10 94 2 102 -2 150 -12 150 -4 0 -5 7 -2 16 3 8 2 12 -4 9 -6 -3 -10 -1 -10 6 0 17 -80 140 -105 161 -11 10 -26 17 -32 18 -7 0 -13 4 -13 9 0 5 -14 14 -31 20 -19 7 -28 15 -23 22 5 8 3 9 -6 4 -7 -4 -16 -2 -21 6 -6 9 -9 10 -9 2 0 -8 -9 -7 -30 3 -33 17 -44 59 -12 47 9 -4 23 -14 30 -22 8 -9 11 -10 7 -3 -9 18 16 14 32 -5 8 -11 11 -12 7 -3 -7 12 -5 13 8 3 8 -7 18 -10 21 -6 4 3 7 1 7 -6 0 -7 5 -9 10 -6 6 3 10 1 10 -5 0 -6 11 -16 25 -22 14 -6 24 -18 23 -27 -2 -11 4 -16 19 -15 26 2 57 -54 46 -82 -6 -16 -5 -17 9 -4 9 8 13 19 10 24 -3 5 0 6 6 2 6 -4 9 -13 5 -21 -3 -9 1 -15 10 -15 12 0 15 -8 12 -32 -2 -18 -1 -27 2 -20 2 6 9 12 14 12 4 0 6 -6 3 -14 -3 -8 0 -17 6 -21 6 -4 8 -16 4 -27 -4 -14 -2 -18 5 -14 6 4 11 3 11 -3 0 -5 -6 -12 -12 -14 -8 -3 -5 -6 5 -6 10 -1 16 -5 12 -10 -3 -5 -1 -12 4 -16 6 -3 8 -11 6 -18 -5 -12 28 -69 39 -68 18 3 46 44 41 60 -3 10 -8 36 -10 57 -12 93 -17 119 -27 125 -5 3 -8 9 -6 11 5 8 -104 158 -114 158 -5 0 -6 5 -3 10 3 6 -1 10 -9 10 -9 0 -16 5 -16 11 0 5 -5 7 -12 3 -7 -4 -8 -3 -4 4 5 8 0 12 -14 12 -11 0 -23 7 -26 15 -3 8 -31 24 -62 35 -32 11 -64 24 -72 27 -20 9 -50 14 -77 13 -13 0 -23 5 -23 10 0 7 -6 7 -19 0 -27 -14 -54 -13 -46 3 4 6 -2 1 -13 -13 -11 -14 -21 -29 -23 -35 -1 -5 -9 -15 -17 -21 -13 -9 -12 -11 2 -11 9 0 16 5 16 10 0 6 9 2 20 -8 11 -10 20 -15 20 -10 0 4 6 2 13 -4 8 -6 17 -8 21 -4 16 17 36 10 36 -12 0 -22 -3 -23 -62 -22 -35 1 -69 6 -77 11 -10 6 -12 5 -7 -2 10 -17 -28 -34 -43 -19 -9 9 -11 9 -9 0 2 -6 -1 -12 -7 -13 -5 -1 -19 -7 -30 -13 -11 -6 -23 -11 -26 -10 -3 1 -4 -10 -1 -24 3 -17 1 -24 -6 -19 -6 3 1 -14 15 -39 14 -25 23 -49 19 -52 -10 -10 41 -43 67 -43 14 0 28 -4 31 -9 3 -4 18 -6 33 -4 22 4 25 2 13 -7 -12 -8 -8 -10 17 -6 23 3 41 -2 60 -17 24 -18 26 -19 13 -2 -14 17 -13 18 3 12 10 -4 23 -7 28 -7 6 0 8 -4 5 -9 -3 -4 6 -7 21 -5 29 3 129 -31 139 -48 5 -7 2 -8 -7 -3 -11 6 -11 5 -3 -4 14 -15 7 -51 -10 -51 -7 0 -19 6 -27 13 -12 10 -12 10 -1 -3 15 -17 16 -40 1 -40 -5 0 -7 6 -3 13 4 6 3 9 -1 4 -5 -4 -10 -17 -12 -30 -2 -12 -9 -26 -15 -32 -8 -7 -9 -6 -4 3 4 6 5 12 3 12 -3 0 -15 -16 -26 -36 -19 -32 -24 -34 -38 -23 -12 10 -15 10 -9 1 10 -16 -2 -52 -18 -52 -7 0 -19 -11 -26 -25 -7 -14 -16 -23 -18 -20 -3 3 -13 -8 -23 -24 -28 -46 -64 -66 -95 -52 -14 6 -23 15 -20 20 3 5 -1 12 -10 15 -14 5 -14 9 -3 23 8 10 9 14 2 10 -6 -4 -14 -3 -18 3 -3 5 0 10 7 10 8 0 6 5 -5 11 -9 6 -15 14 -12 20 4 5 2 9 -4 9 -6 0 -8 6 -5 13 3 8 0 27 -6 43 -6 16 -11 30 -11 32 1 1 -5 15 -14 31 -11 23 -12 31 -2 34 6 3 3 6 -8 6 -17 1 -17 3 -5 11 12 8 12 10 1 10 -8 0 -12 3 -9 6 4 3 -5 38 -18 77 -13 39 -24 79 -24 89 0 10 -5 18 -10 18 -7 0 -6 8 1 23 12 21 11 21 -6 7 -17 -14 -18 -14 -6 9 11 19 11 22 0 16 -9 -6 -11 -4 -6 8 3 9 0 18 -9 21 -8 3 -14 11 -12 18 1 7 -6 36 -15 65 -18 50 -29 96 -30 121 0 6 -4 12 -9 12 -5 0 -1 12 8 28 9 15 10 20 2 11 -11 -14 -15 -14 -26 -3 -7 8 -11 18 -8 22 3 5 -1 20 -9 35 -10 20 -11 27 -2 27 8 0 7 3 -2 9 -8 5 -10 14 -6 21 5 8 4 11 -2 7 -12 -8 -26 50 -16 66 3 6 1 7 -5 3 -8 -5 -11 2 -8 23 2 17 0 28 -4 26 -11 -7 -23 26 -21 54 2 16 -1 21 -9 16 -9 -5 -10 -1 -5 14 4 12 2 21 -4 21 -6 0 -11 7 -11 15 0 8 -5 15 -11 15 -6 0 -9 7 -6 14 4 11 1 13 -10 9 -12 -5 -14 -2 -9 8 4 8 1 6 -7 -3 -16 -20 -32 -25 -21 -6 8 12 -4 7 -48 -24 -16 -11 -28 -16 -28 -11 0 4 -4 3 -8 -2 -4 -6 -24 -19 -45 -30 -21 -11 -51 -32 -67 -48 -25 -25 -30 -26 -43 -12 -14 14 -16 13 -14 -4 0 -11 6 -17 12 -14 5 2 -4 -9 -22 -25 -17 -17 -30 -33 -27 -36 2 -3 1 -4 -3 -1 -3 3 -13 -1 -21 -8 -11 -8 -14 -8 -9 0 4 6 3 14 -2 17 -10 6 -10 -12 0 -29 4 -5 -7 -28 -22 -49 l-29 -39 0 29 c0 23 2 26 10 14 7 -11 9 -2 5 28 -4 33 -2 41 8 36 9 -6 9 -5 0 8 -7 8 -9 18 -5 22 4 4 7 11 8 14 0 4 7 23 16 42 8 19 20 52 27 72 7 21 17 41 23 44 7 5 8 2 3 -6 -5 -9 -4 -11 4 -6 6 4 9 11 6 16 -8 14 26 62 40 56 16 -6 38 9 41 28 1 9 -2 14 -7 10 -5 -3 -7 -9 -4 -14 5 -9 -20 -22 -28 -13 -3 2 3 14 13 26 51 60 61 71 56 62 -2 -6 3 -11 13 -11 12 0 17 6 13 18 -2 10 0 18 4 18 5 0 22 11 38 25 16 14 33 25 39 25 5 0 21 8 35 19 27 18 63 31 72 24 2 -2 6 -15 8 -29z m605 -710 c91 -23 152 -59 220 -127 71 -72 112 -146 132 -244 18 -86 19 -113 1 -113 -9 0 -16 18 -20 53 -4 28 -24 88 -46 132 -76 157 -211 256 -389 287 -39 7 -71 16 -71 20 0 14 109 9 173 -8z m-623 -533 c0 -50 38 -155 78 -217 87 -133 211 -209 377 -232 46 -7 55 -11 41 -17 -11 -5 -53 -4 -97 3 -151 22 -301 127 -362 254 -45 92 -74 238 -47 238 6 0 10 -13 10 -29z"/>
        <path d="M2326 3347 c3 -10 9 -15 12 -12 3 3 0 11 -7 18 -10 9 -11 8 -5 -6z"/>
        <path d="M2646 3298 c3 -5 10 -6 15 -3 13 9 11 12 -6 12 -8 0 -12 -4 -9 -9z"/>
        <path d="M2979 3279 c-23 -23 -21 -41 6 -45 10 -1 22 -9 26 -16 7 -11 9 -10 9 1 0 11 3 11 17 0 14 -12 15 -12 9 0 -7 10 -3 11 15 6 13 -5 40 -9 59 -10 19 -1 35 -3 35 -5 0 -1 11 -4 25 -5 14 -1 38 -7 53 -14 16 -6 33 -11 38 -11 5 0 9 -5 9 -11 0 -6 7 -8 16 -5 8 3 30 -2 47 -11 18 -10 34 -17 37 -18 17 -2 79 -53 72 -60 -4 -4 1 -5 11 -2 11 4 16 3 12 -3 -3 -6 0 -10 7 -10 7 0 24 -12 37 -25 13 -14 20 -25 16 -25 -13 0 -95 61 -95 71 0 6 -4 8 -9 5 -5 -3 -14 1 -21 9 -7 8 -16 12 -21 10 -4 -3 -11 1 -16 9 -4 8 -11 15 -16 15 -29 2 -97 25 -97 33 0 5 -9 7 -19 3 -11 -3 -22 -1 -26 5 -4 6 -16 8 -27 4 -13 -4 -18 -2 -14 4 4 6 -8 9 -32 6 -22 -2 -62 0 -91 5 -33 5 -54 4 -58 -2 -4 -6 -1 -7 8 -2 8 4 4 -2 -9 -15 l-23 -22 23 -17 c13 -9 32 -17 43 -18 11 -1 39 -3 63 -4 23 -2 42 -7 42 -11 0 -4 6 -5 14 -2 8 3 28 -1 44 -10 16 -8 32 -12 36 -9 3 4 6 1 6 -5 0 -7 11 -12 25 -12 25 0 33 -14 15 -25 -5 -3 -10 -2 -10 4 0 6 -7 8 -15 5 -8 -4 -15 -1 -15 6 0 7 -7 10 -16 6 -9 -4 -22 -2 -28 2 -11 9 -28 12 -73 13 -13 1 -23 4 -23 8 0 4 -16 5 -36 3 -25 -3 -35 -1 -30 7 5 7 1 9 -9 5 -9 -4 -14 -9 -11 -11 2 -2 -10 -18 -27 -35 -18 -18 -24 -29 -15 -25 20 7 34 -8 16 -17 -7 -3 -2 -3 11 0 18 5 22 3 16 -7 -6 -11 -5 -11 5 -2 7 7 21 9 34 4 11 -4 35 -7 53 -7 17 1 29 -3 25 -8 -3 -5 2 -7 11 -3 11 4 25 -2 38 -16 12 -12 19 -16 15 -9 -4 6 -2 12 3 12 6 0 11 -5 11 -11 0 -5 5 -7 10 -4 6 3 10 2 10 -3 0 -6 7 -13 16 -16 8 -3 12 -2 9 4 -3 6 -1 10 4 10 6 0 11 -3 11 -8 0 -4 9 -13 21 -20 17 -11 20 -11 14 0 -5 7 1 4 12 -7 11 -11 18 -23 16 -28 -2 -4 -1 -7 4 -6 21 4 35 -4 80 -47 26 -26 41 -43 33 -38 -13 7 -13 5 -1 -9 7 -9 17 -15 21 -12 8 5 24 -33 20 -50 -1 -5 2 -7 6 -2 8 7 56 -78 57 -100 0 -7 4 -13 8 -13 5 0 5 -7 2 -17 -5 -12 -3 -14 7 -8 8 5 11 3 8 -6 -3 -8 -1 -23 5 -34 5 -10 10 -33 9 -49 0 -17 4 -36 10 -43 8 -10 7 -13 -3 -10 -8 2 -11 2 -6 0 4 -3 4 -10 0 -16 -4 -8 -1 -7 9 1 13 10 17 10 22 -3 4 -12 9 -11 29 8 17 16 22 30 19 52 -3 17 -5 53 -5 82 -1 28 -5 49 -9 47 -4 -3 -8 3 -8 13 0 10 -11 39 -25 66 -14 26 -22 47 -19 47 4 0 -1 9 -11 20 -10 11 -14 20 -9 20 5 0 5 4 -1 8 -5 4 -19 17 -29 30 -17 19 -17 22 -3 16 9 -3 17 -10 17 -16 0 -5 5 -6 12 -2 6 4 8 3 4 -4 -3 -6 2 -15 11 -21 10 -5 15 -13 11 -17 -4 -4 2 -15 13 -25 14 -12 16 -19 8 -24 -8 -6 -8 -10 1 -15 18 -11 61 -114 49 -118 -5 -2 -9 -8 -9 -13 0 -6 4 -8 9 -4 12 7 26 -59 17 -80 -4 -11 -2 -14 6 -9 7 5 9 0 6 -14 -4 -13 0 -23 9 -26 8 -3 11 -11 7 -17 -7 -12 34 -3 49 10 11 11 13 110 2 115 -5 3 -4 5 3 5 8 1 10 6 5 14 -20 32 -30 76 -19 88 8 9 8 10 -1 5 -7 -4 -14 -2 -14 3 -2 12 -5 26 -9 39 -1 4 -2 10 -1 15 0 4 -4 7 -9 7 -6 0 -10 8 -10 18 0 9 -9 30 -19 46 -11 17 -18 33 -15 37 2 4 -3 10 -12 13 -8 3 -12 10 -9 16 3 5 2 10 -4 10 -5 0 -18 13 -27 29 -10 17 -22 27 -27 24 -6 -3 -7 -1 -3 5 3 6 -5 19 -19 30 -13 11 -21 22 -18 26 3 3 -2 6 -13 6 -15 0 -16 2 -5 9 12 8 45 -8 36 -17 -2 -2 7 -13 19 -26 11 -12 35 -40 51 -61 17 -21 35 -43 41 -49 6 -6 11 -14 12 -18 1 -5 3 -10 3 -13 1 -3 2 -8 3 -12 1 -5 10 -20 20 -35 15 -24 23 -44 25 -71 1 -5 7 -5 14 -1 6 4 9 4 5 0 -3 -4 0 -26 8 -48 17 -48 17 -51 4 -43 -5 3 -10 2 -10 -4 0 -5 5 -11 11 -13 7 -2 12 -18 13 -36 0 -18 4 -32 7 -32 3 0 6 -14 7 -32 0 -18 8 -38 17 -45 10 -6 15 -16 12 -20 -3 -5 3 -9 13 -9 11 0 16 5 12 15 -4 10 -1 13 9 9 12 -5 14 4 12 46 -7 114 -23 188 -57 269 -9 20 -13 37 -10 37 4 0 0 8 -8 18 -9 9 -19 28 -23 42 -4 13 -14 30 -21 38 -12 12 -18 33 -15 54 0 4 -6 5 -15 1 -8 -3 -14 -1 -12 4 2 5 -12 23 -29 40 -18 18 -31 38 -30 45 2 7 2 9 -1 5 -2 -5 -13 6 -24 24 -15 25 -22 29 -29 18 -8 -13 -13 -6 -10 14 0 4 -5 7 -13 7 -8 0 -18 5 -22 12 -4 7 -3 8 4 4 7 -4 12 -5 12 -2 0 3 -20 15 -45 26 -25 11 -45 23 -45 26 0 3 6 2 13 -2 7 -4 9 -3 4 2 -5 5 -12 9 -15 10 -4 0 -27 10 -50 21 -28 13 -39 23 -30 27 7 3 3 3 -9 0 -13 -3 -23 -1 -23 5 0 6 -9 11 -21 11 -13 0 -18 4 -13 12 4 6 3 8 -4 5 -12 -8 -44 2 -38 12 3 4 -10 6 -27 6 -18 -1 -59 5 -92 12 -33 7 -90 12 -127 13 -56 0 -72 -4 -89 -21z m306 -39 c233 -73 422 -244 523 -473 19 -44 50 -177 57 -249 5 -56 4 -68 -8 -68 -10 0 -16 17 -20 63 -15 185 -144 420 -297 543 -143 114 -344 194 -492 194 -51 0 -68 7 -54 21 12 12 228 -11 291 -31z m-14 -113 c112 -38 194 -91 284 -182 121 -122 181 -257 199 -443 8 -84 -16 -81 -26 4 -24 183 -134 372 -282 481 -118 87 -291 153 -403 153 -25 0 -43 5 -43 11 0 22 186 5 271 -24z m373 -73 c5 -14 4 -15 -9 -4 -17 14 -19 20 -6 20 5 0 12 -7 15 -16z m-400 -35 c236 -88 379 -278 399 -526 3 -40 1 -53 -9 -53 -9 0 -14 12 -14 33 0 51 -26 135 -66 217 -27 54 -58 95 -113 150 -110 109 -232 168 -383 186 -32 3 -58 11 -58 17 0 18 179 1 244 -24z m101 1 c8 0 18 -7 23 -16 5 -9 12 -15 15 -15 19 3 24 0 24 -13 0 -19 -35 -2 -44 20 -3 8 -9 14 -13 14 -22 0 -60 21 -55 30 4 6 12 4 21 -5 9 -8 22 -15 29 -15z m99 -70 c12 0 101 -80 88 -80 -4 0 0 -5 8 -10 8 -5 10 -10 4 -10 -7 0 -22 14 -35 30 -13 17 -39 40 -56 51 -18 11 -32 28 -32 37 1 15 2 15 6 0 2 -10 10 -18 17 -18z"/>
        <path d="M3480 3240 c8 -5 20 -10 25 -10 6 0 3 5 -5 10 -8 5 -19 10 -25 10 -5 0 -3 -5 5 -10z"/>
        <path d="M2160 3150 c-9 -6 -10 -10 -3 -10 6 0 15 5 18 10 8 12 4 12 -15 0z"/>
        <path d="M2374 3088 l-19 -23 23 19 c21 18 27 26 19 26 -2 0 -12 -10 -23 -22z"/>
        <path d="M3645 3090 c10 -11 20 -20 23 -20 3 0 -3 9 -13 20 -10 11 -20 20 -23 20 -3 0 3 -9 13 -20z"/>
        <path d="M2981 3077 c-13 -21 -12 -21 5 -5 10 10 16 20 13 22 -3 3 -11 -5 -18 -17z"/>
        <path d="M2374 3058 l-19 -23 23 19 c21 18 27 26 19 26 -2 0 -12 -10 -23 -22z"/>
        <path d="M2694 3032 c3 -5 0 -13 -6 -15 -9 -4 -10 -6 -1 -6 17 -1 25 16 12 25 -7 4 -9 3 -5 -4z"/>
        <path d="M3716 2997 c3 -10 9 -15 12 -12 3 3 0 11 -7 18 -10 9 -11 8 -5 -6z"/>
        <path d="M3764 2972 c4 -3 14 -7 22 -8 9 -1 13 0 10 4 -4 3 -14 7 -22 8 -9 1 -13 0 -10 -4z"/>
        <path d="M2490 2956 c7 -7 13 -7 20 0 6 6 3 10 -10 10 -13 0 -16 -4 -10 -10z"/>
        <path d="M2146 2687 c3 -10 9 -15 12 -12 3 3 0 11 -7 18 -10 9 -11 8 -5 -6z"/>
        <path d="M3456 2478 c3 -5 10 -6 15 -3 13 9 11 12 -6 12 -8 0 -12 -4 -9 -9z"/>
        <path d="M2225 2471 c-3 -5 -2 -12 3 -15 5 -3 9 1 9 9 0 17 -3 19 -12 6z"/>
        <path d="M2297 2469 c7 -7 15 -10 18 -7 3 3 -2 9 -12 12 -14 6 -15 5 -6 -5z"/>
        <path d="M2396 2469 c3 -5 10 -6 16 -3 7 5 9 2 5 -8 -3 -9 1 -24 8 -35 8 -10 15 -29 15 -43 1 -82 57 -222 125 -310 102 -133 304 -240 452 -240 26 0 43 -5 43 -11 0 -18 -154 -3 -223 20 -164 57 -281 159 -352 306 -44 92 -65 167 -65 235 0 21 -4 42 -10 45 -11 7 -13 -3 -10 -53 1 -18 -4 -40 -12 -49 -7 -9 -8 -14 -2 -10 8 4 14 -8 18 -33 3 -22 5 -42 4 -44 -2 -2 6 -14 17 -26 13 -15 16 -24 8 -27 -7 -3 -2 -14 12 -29 13 -14 22 -31 19 -39 -3 -7 2 -15 11 -19 9 -3 13 -10 10 -16 -3 -6 1 -13 9 -16 9 -3 13 -10 10 -15 -3 -5 2 -12 10 -15 9 -3 13 -10 10 -15 -3 -5 0 -9 6 -9 7 0 10 -7 7 -14 -4 -10 -1 -13 7 -10 8 3 20 -3 28 -13 7 -10 20 -22 29 -28 39 -25 101 -75 93 -76 -5 0 12 -7 39 -15 26 -8 47 -19 47 -25 0 -6 4 -8 9 -5 5 3 14 -1 21 -10 11 -12 15 -12 22 -2 7 9 8 5 4 -12 -4 -21 -3 -23 7 -9 7 9 18 14 25 11 10 -3 8 -8 -5 -18 -24 -18 -29 -18 -54 9 -12 12 -19 16 -15 10 5 -8 2 -11 -7 -7 -8 3 -20 15 -26 27 -6 12 -9 14 -7 5 3 -10 4 -18 2 -18 -10 0 -66 33 -76 45 -7 8 -17 12 -23 8 -6 -4 -8 0 -4 10 3 9 3 16 -1 16 -18 -3 -32 2 -32 12 0 5 5 7 12 3 7 -4 8 -3 4 4 -4 6 -13 9 -21 6 -8 -3 -38 18 -72 52 -32 31 -51 53 -43 49 8 -4 2 4 -14 17 -22 19 -30 34 -30 61 -1 31 -4 36 -19 31 -17 -5 -17 -3 -6 18 12 22 11 22 -6 8 -10 -8 -16 -10 -12 -3 5 7 1 23 -8 36 -8 13 -12 27 -8 30 3 4 1 7 -5 7 -6 0 -9 7 -5 17 4 9 2 14 -3 10 -6 -3 -9 7 -8 24 1 16 -2 29 -7 29 -5 0 -8 3 -7 8 1 4 -1 31 -5 60 -9 61 -30 78 -57 44 -11 -14 -16 -33 -13 -54 2 -18 5 -49 8 -68 5 -44 12 -77 20 -90 4 -6 9 -22 11 -37 3 -15 9 -32 15 -39 5 -6 10 -23 11 -38 1 -14 6 -26 11 -26 5 0 7 -7 4 -14 -4 -10 -1 -13 9 -9 10 4 12 0 7 -13 -4 -12 -3 -15 5 -10 8 5 10 2 6 -9 -4 -10 -2 -15 7 -13 7 2 13 -4 14 -12 1 -8 7 -14 14 -12 7 1 10 -2 7 -6 -3 -5 8 -20 24 -32 17 -13 30 -29 30 -37 0 -8 5 -11 10 -8 6 3 10 2 10 -2 0 -5 7 -18 16 -29 8 -10 12 -12 8 -4 -7 13 -6 13 10 1 9 -8 15 -20 12 -28 -4 -8 -1 -11 5 -8 6 4 19 -1 30 -11 10 -9 19 -14 19 -9 0 4 7 2 15 -5 8 -7 13 -16 10 -20 -3 -5 0 -12 6 -16 7 -4 9 -3 5 4 -3 6 -2 13 4 17 5 3 10 -1 10 -9 0 -9 5 -16 11 -16 5 0 7 5 3 12 -4 7 6 2 23 -10 17 -12 34 -22 38 -22 4 0 21 -6 38 -14 69 -29 83 -33 115 -31 21 1 36 -3 39 -12 4 -10 9 -11 19 -2 7 6 34 9 59 7 25 -2 45 1 45 6 0 4 7 3 15 -4 13 -11 14 -10 9 4 -4 9 -1 16 6 16 9 0 8 5 -3 18 -8 9 -16 21 -15 25 0 5 -4 12 -8 15 -4 4 -4 1 1 -7 6 -10 -3 -12 -46 -7 -30 3 -67 8 -84 12 -16 3 -38 6 -47 7 -41 3 -6 28 45 32 15 2 29 0 31 -4 4 -6 90 -6 106 0 3 1 8 1 12 0 4 0 4 7 1 16 -4 10 -2 14 4 10 5 -3 10 1 10 9 0 8 -6 13 -14 10 -7 -3 -13 -1 -13 4 0 6 -14 10 -31 10 -17 0 -28 4 -24 10 3 5 0 7 -9 4 -24 -9 -127 16 -120 29 5 9 4 9 -5 1 -14 -13 -51 -7 -51 8 0 5 9 4 20 -2 30 -16 24 -7 -11 19 -18 13 -29 19 -25 13 3 -6 2 -13 -3 -16 -5 -4 -12 -2 -16 4 -4 6 -10 8 -15 5 -4 -3 -22 8 -39 24 -16 15 -32 26 -35 24 -2 -2 -13 8 -25 23 -11 15 -21 23 -21 19 0 -4 -12 5 -26 20 -14 15 -23 33 -20 41 3 8 0 11 -8 8 -7 -3 -20 6 -30 20 -11 17 -12 24 -4 22 7 -1 10 -1 5 1 -4 3 -5 9 -2 14 4 5 -1 6 -9 3 -10 -4 -20 6 -30 31 -9 21 -14 41 -11 45 3 5 0 12 -6 16 -8 5 -9 3 -4 -6 5 -9 4 -11 -4 -6 -6 4 -9 11 -6 16 3 5 1 19 -5 30 -16 29 -22 58 -24 110 -1 25 -7 45 -13 45 -16 0 -28 14 -28 32 0 9 -8 17 -18 19 -9 1 -15 -2 -11 -7z m-66 -102 c1 -83 60 -241 128 -340 119 -172 362 -307 553 -307 27 0 49 -4 49 -10 0 -15 -112 -12 -193 6 -40 9 -115 36 -167 61 -79 38 -108 59 -181 132 -73 73 -94 102 -132 181 -45 93 -77 212 -77 285 0 22 4 34 10 30 6 -3 10 -21 10 -38z"/>
        <path d="M2478 2468 c10 -13 10 -17 0 -21 -9 -4 -9 -6 -1 -6 20 -2 24 16 5 30 -15 13 -16 12 -4 -3z"/>
        <path d="M3209 2467 c6 -8 7 -18 3 -22 -4 -5 -1 -5 6 -1 10 6 10 11 1 22 -6 8 -14 14 -16 14 -3 0 0 -6 6 -13z"/>
        <path d="M2166 2443 c-6 -14 -5 -15 5 -6 7 7 10 15 7 18 -3 3 -9 -2 -12 -12z"/>
        <path d="M2192 2430 c2 -8 -3 -15 -9 -16 -7 -1 -16 -2 -20 -3 -4 0 -2 -6 5 -13 7 -7 12 -21 12 -32 0 -16 -2 -18 -9 -7 -6 9 -8 2 -6 -20 2 -19 4 -38 4 -42 1 -5 4 -6 9 -4 4 3 8 -6 8 -19 1 -13 -2 -22 -6 -19 -4 2 -7 -7 -7 -21 0 -16 2 -21 7 -14 10 17 24 -5 16 -26 -3 -8 1 -26 10 -39 9 -13 17 -30 19 -37 9 -39 18 -58 28 -58 6 0 7 -3 4 -6 -7 -7 19 -59 41 -82 12 -13 16 -28 13 -45 -1 -5 3 -6 8 -3 11 7 24 -22 16 -35 -4 -5 1 -6 9 -3 19 7 22 -12 4 -20 -9 -4 -8 -5 2 -5 32 2 39 -1 33 -18 -4 -11 -3 -14 6 -9 8 6 11 2 9 -10 -2 -13 2 -18 15 -16 9 2 17 -2 17 -8 0 -5 7 -10 15 -10 9 0 12 -6 8 -17 -3 -10 -3 -15 2 -11 4 4 14 0 22 -8 8 -8 19 -12 24 -9 5 4 6 -2 2 -11 -5 -13 -3 -16 10 -11 8 3 21 -1 27 -9 7 -8 18 -14 25 -14 7 0 19 -7 26 -16 7 -9 24 -20 37 -25 13 -5 21 -13 18 -17 -3 -5 5 -8 17 -8 12 1 21 -4 20 -11 -2 -7 4 -10 12 -7 8 4 23 3 33 -1 49 -22 141 -41 205 -44 16 0 26 -4 23 -9 -2 -4 14 -6 37 -3 31 3 44 -1 55 -15 13 -18 14 -17 7 6 -7 22 -6 23 9 11 14 -12 16 -12 9 4 -5 14 -3 17 9 12 12 -4 14 -1 10 15 -3 11 -13 23 -23 25 -11 3 -17 8 -14 12 2 4 -21 5 -52 3 -34 -3 -54 -1 -50 5 4 5 -7 8 -25 5 -17 -3 -28 -1 -25 5 5 8 -2 10 -55 15 -13 1 -29 9 -36 17 -8 9 -11 10 -7 4 8 -16 6 -16 -34 -2 -21 7 -30 16 -27 25 6 16 -10 19 -19 4 -5 -8 -11 -7 -21 1 -7 6 -12 15 -9 19 3 5 0 12 -6 16 -8 5 -9 3 -4 -6 20 -33 -84 24 -106 58 -10 16 -10 16 -5 -1 5 -17 5 -17 -18 0 -13 10 -22 20 -20 22 2 2 -12 15 -32 28 -27 19 -34 29 -29 46 5 18 4 19 -5 7 -8 -10 -13 -11 -16 -3 -3 6 -14 21 -25 34 -18 21 -23 34 -20 52 0 4 -2 6 -6 6 -20 -3 -34 2 -28 11 3 6 2 10 -3 10 -5 0 -15 15 -22 33 -8 17 -20 41 -29 51 -9 11 -10 16 -3 12 6 -4 12 -2 12 3 0 6 -7 11 -15 11 -18 0 -19 14 -4 42 9 16 8 19 -2 13 -9 -6 -10 -3 -5 10 6 16 4 16 -11 4 -15 -12 -16 -12 -10 4 4 9 2 17 -5 17 -7 0 -7 4 1 14 9 11 9 16 0 22 -8 5 -9 3 -4 -6 5 -8 4 -11 -2 -7 -6 4 -13 21 -17 39 -11 52 -20 111 -20 135 -1 11 -5 19 -9 16 -4 -3 -15 1 -23 8 -12 10 -15 10 -12 -1z m28 -69 c0 -92 69 -283 141 -388 141 -206 381 -346 617 -360 51 -3 92 -10 92 -16 0 -15 -193 -1 -265 18 -76 21 -210 86 -272 132 -128 95 -235 241 -287 389 -38 108 -62 285 -36 269 6 -3 10 -23 10 -44z"/>
        <path d="M2276 2425 c-11 -8 -15 -15 -9 -15 6 0 16 7 23 15 16 19 11 19 -14 0z"/>
        <path d="M3460 2426 c0 -2 9 -6 20 -9 11 -3 18 -1 14 4 -5 9 -34 13 -34 5z"/>
        <path d="M3150 2376 c0 -2 8 -10 18 -17 15 -13 16 -12 3 4 -13 16 -21 21 -21 13z"/>
        <path d="M3124 2320 c0 -13 4 -16 10 -10 7 7 7 13 0 20 -6 6 -10 3 -10 -10z"/>
        <path d="M3045 2229 c-4 -6 -5 -12 -2 -15 2 -3 7 2 10 11 7 17 1 20 -8 4z"/>
        <path d="M3426 2173 c-6 -14 -5 -15 5 -6 7 7 10 15 7 18 -3 3 -9 -2 -12 -12z"/>
        <path d="M2795 2070 c10 -11 20 -20 23 -20 3 0 -3 9 -13 20 -10 11 -20 20 -23 20 -3 0 3 -9 13 -20z"/>
        <path d="M2830 2040 c-8 -5 -10 -10 -5 -10 6 0 17 5 25 10 8 5 11 10 5 10 -5 0 -17 -5 -25 -10z"/>
        <path d="M2677 2009 c7 -7 15 -10 18 -7 3 3 -2 9 -12 12 -14 6 -15 5 -6 -5z"/>
        <path d="M3105 2011 c-3 -5 -2 -12 3 -15 5 -3 9 1 9 9 0 17 -3 19 -12 6z"/>
        <path d="M2740 1950 c8 -5 20 -10 25 -10 6 0 3 5 -5 10 -8 5 -19 10 -25 10 -5 0 -3 -5 5 -10z"/>
        <path d="M3770 1900 c-9 -6 -10 -10 -3 -10 6 0 15 5 18 10 8 12 4 12 -15 0z"/>
        <path d="M2291 1873 c-1 -17 16 -25 25 -12 4 7 3 9 -4 5 -5 -3 -13 0 -15 6 -4 9 -6 10 -6 1z"/>
        <path d="M2487 1869 c7 -7 15 -10 18 -7 3 3 -2 9 -12 12 -14 6 -15 5 -6 -5z"/>
        <path d="M3700 1831 c0 -6 4 -13 10 -16 6 -3 7 1 4 9 -7 18 -14 21 -14 7z"/>
        <path d="M3103 1781 c0 -11 5 -18 9 -15 4 3 5 11 1 19 -7 21 -12 19 -10 -4z"/>
        <path d="M2416 1756 c-10 -16 -12 -27 -6 -31 6 -4 9 -3 8 2 -1 4 3 18 10 31 17 30 8 28 -12 -2z"/>
        <path d="M2430 1737 c0 -2 6 -10 14 -16 11 -9 16 -9 22 1 4 7 4 10 -1 6 -4 -4 -14 -3 -22 3 -7 6 -13 9 -13 6z"/>
        <path d="M3532 1673 c-6 -2 -10 -9 -6 -14 8 -14 21 -11 21 6 0 8 -1 15 -1 14 -1 0 -7 -3 -14 -6z"/>
        <path d="M2616 1588 c2 -4 14 -5 26 -3 32 7 32 13 -1 11 -16 0 -27 -4 -25 -8z"/>
        <path d="M2264 3576 c1 -8 5 -18 8 -22 4 -3 5 1 4 10 -1 8 -5 18 -8 22 -4 3 -5 -1 -4 -10z"/>
        <path d="M2086 3258 c3 -5 10 -6 15 -3 13 9 11 12 -6 12 -8 0 -12 -4 -9 -9z"/>
        <path d="M2450 3250 c-9 -6 -10 -10 -3 -10 6 0 15 5 18 10 8 12 4 12 -15 0z"/>
        <path d="M3630 3246 c0 -2 8 -10 18 -17 15 -13 16 -12 3 4 -13 16 -21 21 -21 13z"/>
        <path d="M3745 3190 c-4 -6 -11 -7 -17 -4 -7 4 -8 2 -4 -5 6 -9 11 -9 22 0 14 11 18 19 10 19 -3 0 -8 -5 -11 -10z"/>
        <path d="M2536 3162 c-3 -5 1 -9 9 -9 8 0 12 4 9 9 -3 4 -7 8 -9 8 -2 0 -6 -4 -9 -8z"/>
        <path d="M2250 3070 c-6 -11 -9 -20 -8 -20 2 0 11 9 21 20 9 11 13 20 7 20 -5 0 -14 -9 -20 -20z"/>
        <path d="M2910 2706 c0 -2 7 -7 16 -10 8 -3 12 -2 9 4 -6 10 -25 14 -25 6z"/>
        <path d="M2011 2564 c0 -11 3 -14 6 -6 3 7 2 16 -1 19 -3 4 -6 -2 -5 -13z"/>
        <path d="M2010 2331 c0 -6 4 -13 10 -16 6 -3 7 1 4 9 -7 18 -14 21 -14 7z"/>
        <path d="M2735 2230 c-4 -6 1 -7 11 -3 13 5 15 3 9 -8 -4 -8 -5 -11 0 -7 4 4 14 3 21 -3 8 -7 14 -6 20 2 4 7 3 9 -3 6 -6 -4 -16 0 -23 8 -14 17 -26 19 -35 5z"/>
        <path d="M2979 2093 c-13 -16 -12 -17 4 -4 16 13 21 21 13 21 -2 0 -10 -8 -17 -17z"/>
        <path d="M3823 1785 c0 -8 4 -12 9 -9 5 3 6 10 3 15 -9 13 -12 11 -12 -6z"/>
        <path d="M3793 1775 c0 -8 4 -12 9 -9 5 3 6 10 3 15 -9 13 -12 11 -12 -6z"/>
        <path d="M3737 1716 c-4 -10 -1 -13 8 -9 8 3 12 9 9 14 -7 12 -11 11 -17 -5z"/>
        <path d="M3665 1629 c-4 -6 -5 -12 -2 -15 2 -3 7 2 10 11 7 17 1 20 -8 4z"/>
        <path d="M2415 1610 c-3 -6 1 -7 9 -4 18 7 21 14 7 14 -6 0 -13 -4 -16 -10z"/>
        <path d="M2556 1532 c-3 -5 1 -9 9 -9 8 0 12 4 9 9 -3 4 -7 8 -9 8 -2 0 -6 -4 -9 -8z"/>
        <path d="M3486 1528 c3 -5 10 -6 15 -3 13 9 11 12 -6 12 -8 0 -12 -4 -9 -9z"/>
        <path d="M4449 1103 c-13 -16 -12 -17 4 -4 9 7 17 15 17 17 0 8 -8 3 -21 -13z"/>
        <path d="M2938 1103 c-15 -2 -41 -18 -58 -34 l-30 -31 0 -206 0 -207 86 0 85 0 -2 170 c-1 139 1 170 12 170 11 0 15 -33 17 -170 l2 -170 85 0 85 0 0 172 c0 157 1 171 18 169 15 -3 17 -19 19 -171 l2 -168 81 1 82 0 -2 197 c-1 211 -7 240 -52 262 -69 34 -168 25 -210 -19 -24 -26 -27 -27 -32 -10 -4 11 -19 25 -34 31 -30 14 -112 22 -154 14z m144 -35 c9 -1 15 -5 12 -9 -2 -4 3 -10 12 -13 8 -3 12 -10 9 -16 -8 -13 20 -3 73 28 36 20 51 23 104 19 34 -2 64 -10 66 -16 2 -6 8 -9 13 -6 5 4 6 -2 2 -11 -4 -10 -2 -15 4 -11 5 3 10 1 10 -6 0 -7 4 -21 9 -32 7 -18 6 -19 -12 -5 -19 14 -19 14 0 -8 18 -20 19 -34 13 -168 -4 -80 -8 -148 -11 -152 -2 -4 -27 -5 -55 -4 l-51 4 -2 151 c0 84 -1 157 -1 164 0 6 -6 9 -15 6 -10 -5 -13 -2 -8 6 14 22 -27 8 -46 -16 -15 -18 -18 -43 -18 -167 l0 -146 -55 0 -55 0 0 149 c0 167 -6 186 -57 172 -28 -7 -28 -8 -34 -117 -4 -60 -7 -132 -8 -160 l-1 -50 -50 -3 -50 -2 -2 78 c-5 192 1 298 18 310 10 7 21 10 27 6 6 -3 7 -1 3 6 -4 6 -12 9 -17 6 -5 -4 -9 -2 -9 4 0 5 6 11 13 14 11 4 134 1 169 -5z"/>
        <path d="M2930 1065 c0 -2 6 -8 13 -14 10 -8 14 -7 14 2 0 8 -6 14 -14 14 -7 0 -13 -1 -13 -2z"/>
        <path d="M3080 1040 c0 -5 5 -10 11 -10 5 0 7 5 4 10 -3 6 -8 10 -11 10 -2 0 -4 -4 -4 -10z"/>
        <path d="M3030 1000 c-8 -5 -10 -10 -5 -10 6 0 17 5 25 10 8 5 11 10 5 10 -5 0 -17 -5 -25 -10z"/>
        <path d="M3415 1101 c-3 -5 -2 -12 3 -15 5 -3 9 1 9 9 0 17 -3 19 -12 6z"/>
        <path d="M3571 1097 c-19 -6 -44 -25 -55 -40 -19 -26 -21 -44 -24 -230 l-3 -202 95 0 96 0 0 53 c0 40 4 52 15 52 11 0 15 -12 15 -52 l0 -53 95 0 95 0 -1 185 c-1 277 -11 293 -187 297 -67 2 -120 -2 -141 -10z m253 -32 c9 -9 16 -24 17 -33 0 -14 2 -13 10 3 8 17 9 16 6 -7 -3 -16 -1 -28 3 -28 5 0 7 -78 6 -172 l-1 -173 -60 0 -60 0 -3 34 c-3 33 -42 98 -42 71 0 -7 -3 -10 -6 -7 -4 3 -15 2 -25 -4 -14 -7 -19 -21 -19 -53 l0 -43 -59 -2 -59 -2 -7 104 c-4 57 -6 143 -4 191 4 80 6 90 30 110 24 21 38 23 142 25 94 1 118 -2 131 -14z"/>
        <path d="M3571 1057 c-8 -10 -7 -14 2 -14 8 0 14 6 14 14 0 7 -1 13 -2 13 -2 0 -8 -6 -14 -13z"/>
        <path d="M3661 991 c-13 -23 -14 -120 -2 -139 11 -18 71 -23 64 -5 -3 7 -1 13 5 13 6 0 12 -5 14 -12 3 -7 7 -5 11 6 4 10 3 15 -3 11 -6 -4 -10 17 -10 53 0 61 -7 74 -47 86 -16 5 -25 2 -32 -13z m49 -71 c0 -47 -3 -60 -15 -60 -12 0 -15 13 -15 60 0 47 3 60 15 60 12 0 15 -13 15 -60z"/>
        <path d="M4530 1098 c-19 -8 -45 -28 -58 -48 -22 -34 -23 -41 -20 -197 l3 -163 33 -32 c32 -33 34 -33 139 -36 183 -6 223 21 223 153 l0 70 -90 0 -90 0 0 -52 c0 -45 -3 -53 -18 -53 -17 0 -19 11 -21 120 -2 115 -1 120 19 120 17 0 20 -6 20 -50 l0 -50 90 0 90 0 0 66 c0 73 -18 121 -52 143 -31 20 -221 26 -268 9z m266 -44 c15 -16 23 -32 19 -42 -3 -8 0 -19 7 -24 10 -7 10 -11 1 -14 -8 -4 -9 -14 -3 -35 l9 -29 -64 0 -63 0 -4 35 c-3 27 -1 34 9 30 8 -2 11 0 8 5 -3 6 -14 10 -23 11 -11 0 -12 3 -4 6 6 2 12 9 12 14 0 6 -8 6 -19 -1 -23 -12 -34 -13 -27 -2 9 15 -33 10 -46 -6 -9 -11 -10 -14 0 -8 18 11 15 -5 -5 -21 -10 -8 -12 -12 -5 -8 9 5 12 -19 12 -102 0 -73 -4 -114 -12 -123 -10 -11 -9 -11 6 0 17 13 19 13 14 0 -4 -12 2 -16 24 -18 37 -3 59 19 62 61 2 29 5 32 41 35 72 6 80 -1 77 -58 -2 -27 -7 -48 -12 -45 -4 3 -8 -1 -7 -8 1 -34 -5 -45 -30 -52 -23 -5 -217 -9 -240 -4 -5 1 -11 1 -16 0 -4 0 -6 5 -5 11 2 7 -3 12 -9 10 -7 -1 -12 1 -11 5 0 5 -2 15 -6 25 -4 9 -6 89 -4 178 4 205 -3 197 167 198 117 1 122 1 147 -24z"/>
        <path d="M4748 1063 c7 -3 16 -2 19 1 4 3 -2 6 -13 5 -11 0 -14 -3 -6 -6z"/>
        <path d="M4510 696 c0 -2 8 -10 18 -17 15 -13 16 -12 3 4 -13 16 -21 21 -21 13z"/>
        <path d="M4860 1106 c0 -2 8 -10 18 -17 15 -13 16 -12 3 4 -13 16 -21 21 -21 13z"/>
        <path d="M744 1058 c30 -287 42 -358 64 -387 31 -43 60 -52 149 -49 74 3 84 6 111 31 33 32 42 70 62 257 7 58 15 124 20 148 l8 42 -99 0 -99 0 0 -170 c0 -144 -2 -170 -15 -170 -13 0 -15 26 -15 170 l0 170 -95 0 -95 0 4 -42z m156 -120 c0 -165 3 -182 35 -196 19 -9 26 -7 44 12 20 21 30 53 14 43 -9 -6 -7 272 1 281 3 3 6 -1 6 -9 0 -12 2 -11 10 1 9 13 11 13 20 0 6 -10 10 -11 10 -2 0 7 15 12 40 12 l39 0 -4 -57 c-2 -32 -9 -98 -15 -148 -7 -49 -12 -101 -12 -115 0 -14 -4 -31 -10 -37 -6 -7 -8 -19 -5 -27 4 -11 1 -13 -11 -9 -9 3 -14 2 -10 -2 19 -20 -34 -36 -114 -34 -76 2 -85 4 -105 28 -23 26 -37 98 -38 193 0 25 -3 44 -7 41 -5 -2 -8 6 -9 19 0 13 -2 47 -4 76 -4 62 6 71 78 72 l47 0 0 -142z"/>
        <path d="M786 973 c-6 -14 -5 -15 5 -6 7 7 10 15 7 18 -3 3 -9 -2 -12 -12z"/>
        <path d="M1065 750 c3 -5 8 -10 11 -10 2 0 4 5 4 10 0 6 -5 10 -11 10 -5 0 -7 -4 -4 -10z"/>
        <path d="M826 711 c-3 -4 5 -18 18 -30 13 -13 27 -18 30 -13 3 5 0 14 -7 20 -11 10 -17 12 -34 12 -5 0 -1 5 7 10 9 6 10 10 3 10 -6 0 -14 -4 -17 -9z"/>
        <path d="M1220 863 l0 -238 95 0 95 0 0 238 0 237 -95 0 -95 0 0 -237z m158 210 c-10 -2 -15 -10 -11 -19 3 -7 8 -12 12 -10 3 2 2 -86 -3 -195 l-9 -200 -56 3 -56 3 -2 204 c-1 113 0 208 3 213 3 4 35 7 72 7 37 -1 59 -3 50 -6z"/>
        <path d="M1480 863 l0 -238 90 0 c50 0 90 0 90 0 0 1 -13 40 -28 88 -25 76 -26 87 -12 87 18 0 30 -21 51 -93 20 -69 33 -77 128 -80 l81 -2 0 238 0 237 -90 0 -90 0 6 -27 c4 -16 15 -52 26 -82 22 -67 22 -70 -1 -64 -12 3 -24 24 -36 66 -28 96 -43 107 -137 107 l-78 0 0 -237z m153 195 c12 -13 29 -43 37 -68 16 -53 17 -57 19 -71 0 -5 7 -7 14 -3 9 6 9 4 -1 -8 -9 -11 -10 -18 -2 -23 5 -3 13 1 16 9 3 9 10 13 15 10 5 -3 7 -9 5 -13 -3 -4 1 -8 9 -8 8 0 13 3 13 6 -1 3 2 18 6 33 5 17 2 45 -9 78 -9 28 -14 57 -11 65 7 20 92 20 103 1 4 -8 7 -105 5 -216 l-3 -201 -52 2 c-29 1 -62 7 -75 12 -21 10 -21 12 -7 34 9 13 12 23 8 22 -22 -4 -30 4 -42 39 -15 42 -38 72 -56 72 -7 0 -20 -9 -30 -20 -16 -18 -16 -22 -1 -66 8 -25 13 -51 9 -57 -3 -6 -1 -7 5 -3 11 7 16 -4 10 -21 -2 -4 -26 -7 -55 -7 l-52 -1 -3 196 c-2 108 -2 203 0 213 6 26 95 22 125 -6z"/>
        <path d="M1950 971 c0 -117 2 -131 23 -162 13 -20 36 -38 55 -44 32 -9 32 -9 32 -75 l0 -65 90 0 90 0 0 65 c0 66 0 66 32 75 19 6 42 24 55 44 21 31 23 45 23 162 l0 129 -92 0 -93 0 3 -110 c3 -106 3 -110 -18 -110 -21 0 -21 4 -18 110 l3 110 -92 0 -93 0 0 -129z m160 96 c0 -5 -8 -6 -17 -3 -17 6 -17 5 -1 -7 14 -11 17 -29 17 -85 -1 -43 -5 -72 -11 -72 -6 0 1 -9 15 -20 59 -47 86 -12 80 100 l-5 80 28 10 c15 6 46 10 67 8 l40 -3 -1 -114 c-1 -118 -14 -161 -48 -161 -9 0 -12 -5 -8 -12 5 -7 2 -9 -8 -6 -25 10 -48 -28 -48 -80 l0 -47 -60 -3 -60 -3 0 55 c0 30 -5 58 -11 61 -6 4 -8 13 -5 21 3 8 0 11 -9 7 -8 -3 -12 -10 -8 -17 3 -6 -3 -2 -15 8 -12 11 -22 16 -22 11 0 -16 -38 41 -40 60 -6 55 1 196 9 190 6 -3 8 4 6 15 -4 20 0 21 55 19 33 -1 60 -7 60 -12z"/>
        <path d="M2420 863 l0 -238 174 0 175 0 3 68 3 67 -88 0 -88 0 3 170 3 170 -92 0 -93 0 0 -237z m156 183 c3 -12 4 -82 2 -154 l-3 -133 27 -11 c15 -7 24 -17 21 -23 -3 -5 0 -4 8 3 16 14 103 17 94 2 -3 -6 1 -7 9 -4 13 5 16 -1 16 -30 0 -46 -13 -50 -172 -43 l-123 4 -3 197 c-2 158 0 196 10 190 10 -6 11 -5 1 8 -18 21 -12 23 51 20 48 -3 57 -7 62 -26z"/>
        <path d="M2560 746 c0 -2 7 -7 16 -10 8 -3 12 -2 9 4 -6 10 -25 14 -25 6z"/>
        <path d="M3965 1029 l0 -71 58 4 57 3 0 -170 0 -170 87 0 88 0 5 169 5 170 58 -3 57 -2 0 70 0 71 -207 0 -208 0 0 -71z m385 31 c12 -19 13 -33 1 -26 -5 3 -11 -1 -14 -9 -4 -9 -1 -12 7 -9 7 3 13 -2 13 -10 0 -9 -9 -13 -24 -11 -12 1 -23 -1 -23 -4 0 -4 -15 -5 -34 -3 l-34 4 -1 -119 c-1 -65 -4 -139 -7 -165 l-6 -46 -53 -4 -53 -3 -6 50 c-3 28 -6 96 -6 153 0 121 -6 132 -73 132 l-45 0 2 46 1 45 173 -3 c140 -2 175 -6 182 -18z"/>
        <path d="M4280 1026 c0 -2 7 -7 16 -10 8 -3 12 -2 9 4 -6 10 -25 14 -25 6z"/>
        <path d="M4925 863 l0 -236 93 -1 93 -1 -3 88 c-3 77 -1 87 15 87 15 0 17 -11 17 -87 l0 -88 90 0 90 0 0 238 0 237 -90 0 -90 0 0 -89 c0 -77 -2 -89 -16 -87 -14 2 -17 15 -15 89 l2 87 -93 0 -93 0 0 -237z m140 206 c-3 -4 -1 -10 5 -14 5 -3 10 -32 10 -64 0 -31 5 -62 12 -69 9 -9 9 -12 -2 -12 -8 0 -4 -6 10 -14 22 -11 27 -11 42 8 10 12 18 27 18 34 0 6 3 12 8 12 4 0 6 29 5 65 l-2 66 57 -3 c47 -2 57 -6 56 -20 -1 -10 2 -15 7 -12 6 3 8 -76 7 -193 l-3 -198 -60 0 -60 0 -6 79 c-7 79 -16 96 -50 96 -28 0 -38 -24 -41 -100 l-3 -75 -56 -3 -57 -3 -6 193 c-9 260 -14 239 56 237 31 -1 55 -5 53 -10z"/>
        <path d="M5047 1049 c7 -7 15 -10 18 -7 3 3 -2 9 -12 12 -14 6 -15 5 -6 -5z"/>
        <path d="M1936 742 c-3 -4 4 -9 15 -9 23 -2 25 3 4 10 -8 4 -16 3 -19 -1z"/>
        <path d="M1058 573 c7 -3 16 -2 19 1 4 3 -2 6 -13 5 -11 0 -14 -3 -6 -6z"/>
    </g>
</svg>